<mxfile host="app.diagrams.net" modified="2023-01-06T02:44:14.018Z" agent="5.0 (Windows NT 10.0; Win64; x64) AppleWebKit/537.36 (KHTML, like Gecko) Chrome/108.0.0.0 Safari/537.36" etag="_xmNZRmLRRNawEQLyv1M" version="20.8.1" type="github">
  <diagram id="c8nQ24KWdyUHY_Pyvcy-" name="Page-1">
    <mxGraphModel dx="1134" dy="579" grid="1" gridSize="10" guides="1" tooltips="1" connect="1" arrows="1" fold="1" page="1" pageScale="1" pageWidth="850" pageHeight="1100" math="0" shadow="0">
      <root>
        <mxCell id="0" />
        <mxCell id="1" parent="0" />
        <mxCell id="5ch3BuvXPacQ8BSMFHwB-1" value="Create" style="rounded=1;whiteSpace=wrap;html=1;fontFamily=Tahoma;" parent="1" vertex="1">
          <mxGeometry x="80" y="40" width="120" height="60" as="geometry" />
        </mxCell>
        <mxCell id="5ch3BuvXPacQ8BSMFHwB-49" value="" style="edgeStyle=orthogonalEdgeStyle;rounded=0;orthogonalLoop=1;jettySize=auto;html=1;fontFamily=Tahoma;" parent="1" source="5ch3BuvXPacQ8BSMFHwB-3" target="5ch3BuvXPacQ8BSMFHwB-48" edge="1">
          <mxGeometry relative="1" as="geometry" />
        </mxCell>
        <mxCell id="5ch3BuvXPacQ8BSMFHwB-3" value="READ" style="rounded=1;whiteSpace=wrap;html=1;" parent="1" vertex="1">
          <mxGeometry x="455" y="30" width="120" height="60" as="geometry" />
        </mxCell>
        <mxCell id="5ch3BuvXPacQ8BSMFHwB-74" value="" style="edgeStyle=orthogonalEdgeStyle;rounded=0;orthogonalLoop=1;jettySize=auto;html=1;fontFamily=Tahoma;" parent="1" source="5ch3BuvXPacQ8BSMFHwB-4" target="5ch3BuvXPacQ8BSMFHwB-73" edge="1">
          <mxGeometry relative="1" as="geometry" />
        </mxCell>
        <mxCell id="5ch3BuvXPacQ8BSMFHwB-4" value="DELETE" style="rounded=1;whiteSpace=wrap;html=1;" parent="1" vertex="1">
          <mxGeometry x="670" y="30" width="120" height="60" as="geometry" />
        </mxCell>
        <mxCell id="5ch3BuvXPacQ8BSMFHwB-7" value="" style="endArrow=classic;html=1;rounded=0;fontFamily=Tahoma;" parent="1" target="5ch3BuvXPacQ8BSMFHwB-8" edge="1">
          <mxGeometry x="-0.68" y="56" width="50" height="50" relative="1" as="geometry">
            <mxPoint x="139.5" y="100" as="sourcePoint" />
            <mxPoint x="139.5" y="150" as="targetPoint" />
            <mxPoint as="offset" />
          </mxGeometry>
        </mxCell>
        <mxCell id="5ch3BuvXPacQ8BSMFHwB-12" value="" style="edgeStyle=orthogonalEdgeStyle;rounded=0;orthogonalLoop=1;jettySize=auto;html=1;fontFamily=Tahoma;" parent="1" source="5ch3BuvXPacQ8BSMFHwB-8" edge="1">
          <mxGeometry relative="1" as="geometry">
            <mxPoint x="140" y="240" as="targetPoint" />
          </mxGeometry>
        </mxCell>
        <mxCell id="5ch3BuvXPacQ8BSMFHwB-8" value="USER CREATE TASK IN TEXTFEILD" style="ellipse;whiteSpace=wrap;html=1;fontFamily=Tahoma;" parent="1" vertex="1">
          <mxGeometry x="80" y="130" width="120" height="80" as="geometry" />
        </mxCell>
        <mxCell id="5ch3BuvXPacQ8BSMFHwB-9" value="" style="endArrow=classic;html=1;rounded=0;fontFamily=Tahoma;" parent="1" edge="1">
          <mxGeometry x="-0.68" y="56" width="50" height="50" relative="1" as="geometry">
            <mxPoint x="139.5" y="214" as="sourcePoint" />
            <mxPoint x="140" y="240" as="targetPoint" />
            <mxPoint as="offset" />
          </mxGeometry>
        </mxCell>
        <mxCell id="5ch3BuvXPacQ8BSMFHwB-33" value="" style="edgeStyle=orthogonalEdgeStyle;rounded=0;orthogonalLoop=1;jettySize=auto;html=1;fontFamily=Tahoma;" parent="1" source="5ch3BuvXPacQ8BSMFHwB-11" target="5ch3BuvXPacQ8BSMFHwB-18" edge="1">
          <mxGeometry relative="1" as="geometry" />
        </mxCell>
        <mxCell id="5ch3BuvXPacQ8BSMFHwB-11" value="API GET DATA TO&lt;br&gt;DB" style="shape=parallelogram;perimeter=parallelogramPerimeter;whiteSpace=wrap;html=1;fixedSize=1;fontFamily=Tahoma;" parent="1" vertex="1">
          <mxGeometry x="80" y="240" width="120" height="60" as="geometry" />
        </mxCell>
        <mxCell id="4QbrbUjf_JDfH0iNYR-u-2" value="" style="edgeStyle=orthogonalEdgeStyle;rounded=0;orthogonalLoop=1;jettySize=auto;html=1;" edge="1" parent="1" source="5ch3BuvXPacQ8BSMFHwB-18" target="4QbrbUjf_JDfH0iNYR-u-1">
          <mxGeometry relative="1" as="geometry" />
        </mxCell>
        <mxCell id="5ch3BuvXPacQ8BSMFHwB-18" value="DB store data" style="rounded=1;whiteSpace=wrap;html=1;fontFamily=Tahoma;" parent="1" vertex="1">
          <mxGeometry x="80" y="340" width="120" height="60" as="geometry" />
        </mxCell>
        <mxCell id="5ch3BuvXPacQ8BSMFHwB-76" value="" style="edgeStyle=orthogonalEdgeStyle;rounded=0;orthogonalLoop=1;jettySize=auto;html=1;fontFamily=Tahoma;" parent="1" target="5ch3BuvXPacQ8BSMFHwB-27" edge="1">
          <mxGeometry relative="1" as="geometry">
            <mxPoint x="320" y="330" as="sourcePoint" />
          </mxGeometry>
        </mxCell>
        <mxCell id="5ch3BuvXPacQ8BSMFHwB-19" value="API REQEST &amp;amp;SEND DATA TO&lt;br&gt;FRONTEND" style="shape=parallelogram;perimeter=parallelogramPerimeter;whiteSpace=wrap;html=1;fixedSize=1;fontFamily=Tahoma;" parent="1" vertex="1">
          <mxGeometry x="260" y="260" width="120" height="70" as="geometry" />
        </mxCell>
        <mxCell id="5ch3BuvXPacQ8BSMFHwB-71" value="" style="edgeStyle=orthogonalEdgeStyle;rounded=0;orthogonalLoop=1;jettySize=auto;html=1;fontFamily=Tahoma;" parent="1" source="5ch3BuvXPacQ8BSMFHwB-27" target="5ch3BuvXPacQ8BSMFHwB-31" edge="1">
          <mxGeometry relative="1" as="geometry" />
        </mxCell>
        <mxCell id="5ch3BuvXPacQ8BSMFHwB-27" value="USER CAN EDIT THEIR DATA" style="ellipse;whiteSpace=wrap;html=1;fontFamily=Tahoma;" parent="1" vertex="1">
          <mxGeometry x="260" y="355" width="120" height="80" as="geometry" />
        </mxCell>
        <mxCell id="5ch3BuvXPacQ8BSMFHwB-47" value="" style="edgeStyle=orthogonalEdgeStyle;rounded=0;orthogonalLoop=1;jettySize=auto;html=1;fontFamily=Tahoma;" parent="1" source="5ch3BuvXPacQ8BSMFHwB-31" target="5ch3BuvXPacQ8BSMFHwB-41" edge="1">
          <mxGeometry relative="1" as="geometry" />
        </mxCell>
        <mxCell id="5ch3BuvXPacQ8BSMFHwB-31" value="API GET DATA TO DB&lt;br&gt;" style="shape=parallelogram;perimeter=parallelogramPerimeter;whiteSpace=wrap;html=1;fixedSize=1;fontFamily=Tahoma;" parent="1" vertex="1">
          <mxGeometry x="255" y="465" width="130" height="60" as="geometry" />
        </mxCell>
        <mxCell id="4QbrbUjf_JDfH0iNYR-u-6" value="" style="edgeStyle=orthogonalEdgeStyle;rounded=0;orthogonalLoop=1;jettySize=auto;html=1;" edge="1" parent="1" source="5ch3BuvXPacQ8BSMFHwB-37" target="4QbrbUjf_JDfH0iNYR-u-5">
          <mxGeometry relative="1" as="geometry" />
        </mxCell>
        <mxCell id="5ch3BuvXPacQ8BSMFHwB-37" value="EDIT" style="rhombus;whiteSpace=wrap;html=1;fontFamily=Tahoma;" parent="1" vertex="1">
          <mxGeometry x="275" y="20" width="80" height="80" as="geometry" />
        </mxCell>
        <mxCell id="4QbrbUjf_JDfH0iNYR-u-4" value="" style="edgeStyle=orthogonalEdgeStyle;rounded=0;orthogonalLoop=1;jettySize=auto;html=1;" edge="1" parent="1" source="5ch3BuvXPacQ8BSMFHwB-41" target="4QbrbUjf_JDfH0iNYR-u-3">
          <mxGeometry relative="1" as="geometry" />
        </mxCell>
        <mxCell id="5ch3BuvXPacQ8BSMFHwB-41" value="DB store data" style="rounded=1;whiteSpace=wrap;html=1;fontFamily=Tahoma;" parent="1" vertex="1">
          <mxGeometry x="260" y="560" width="120" height="60" as="geometry" />
        </mxCell>
        <mxCell id="5ch3BuvXPacQ8BSMFHwB-54" value="" style="edgeStyle=orthogonalEdgeStyle;rounded=0;orthogonalLoop=1;jettySize=auto;html=1;fontFamily=Tahoma;" parent="1" source="5ch3BuvXPacQ8BSMFHwB-48" target="5ch3BuvXPacQ8BSMFHwB-53" edge="1">
          <mxGeometry relative="1" as="geometry" />
        </mxCell>
        <mxCell id="5ch3BuvXPacQ8BSMFHwB-48" value="USER REQUEST THEIR DATA" style="ellipse;whiteSpace=wrap;html=1;fontFamily=Tahoma;" parent="1" vertex="1">
          <mxGeometry x="460" y="120" width="115" height="80" as="geometry" />
        </mxCell>
        <mxCell id="5ch3BuvXPacQ8BSMFHwB-57" value="" style="edgeStyle=orthogonalEdgeStyle;rounded=0;orthogonalLoop=1;jettySize=auto;html=1;fontFamily=Tahoma;" parent="1" source="5ch3BuvXPacQ8BSMFHwB-53" edge="1">
          <mxGeometry relative="1" as="geometry">
            <mxPoint x="515" y="320" as="targetPoint" />
          </mxGeometry>
        </mxCell>
        <mxCell id="5ch3BuvXPacQ8BSMFHwB-58" value="" style="edgeStyle=orthogonalEdgeStyle;rounded=0;orthogonalLoop=1;jettySize=auto;html=1;fontFamily=Tahoma;" parent="1" source="5ch3BuvXPacQ8BSMFHwB-53" edge="1">
          <mxGeometry relative="1" as="geometry">
            <mxPoint x="515" y="320" as="targetPoint" />
          </mxGeometry>
        </mxCell>
        <mxCell id="5ch3BuvXPacQ8BSMFHwB-53" value="API GET DATA FROM DB" style="shape=parallelogram;perimeter=parallelogramPerimeter;whiteSpace=wrap;html=1;fixedSize=1;fontFamily=Tahoma;" parent="1" vertex="1">
          <mxGeometry x="450" y="220" width="130" height="70" as="geometry" />
        </mxCell>
        <mxCell id="5ch3BuvXPacQ8BSMFHwB-62" value="" style="edgeStyle=orthogonalEdgeStyle;rounded=0;orthogonalLoop=1;jettySize=auto;html=1;fontFamily=Tahoma;" parent="1" target="5ch3BuvXPacQ8BSMFHwB-61" edge="1">
          <mxGeometry relative="1" as="geometry">
            <mxPoint x="515" y="380" as="sourcePoint" />
          </mxGeometry>
        </mxCell>
        <mxCell id="4QbrbUjf_JDfH0iNYR-u-9" value="" style="edgeStyle=orthogonalEdgeStyle;rounded=0;orthogonalLoop=1;jettySize=auto;html=1;" edge="1" parent="1" source="5ch3BuvXPacQ8BSMFHwB-61" target="4QbrbUjf_JDfH0iNYR-u-8">
          <mxGeometry relative="1" as="geometry" />
        </mxCell>
        <mxCell id="5ch3BuvXPacQ8BSMFHwB-61" value="API GET DATA TO&lt;br&gt;FRONTEND" style="shape=parallelogram;perimeter=parallelogramPerimeter;whiteSpace=wrap;html=1;fixedSize=1;fontFamily=Tahoma;" parent="1" vertex="1">
          <mxGeometry x="458.75" y="320" width="112.5" height="70" as="geometry" />
        </mxCell>
        <mxCell id="5ch3BuvXPacQ8BSMFHwB-77" value="" style="edgeStyle=orthogonalEdgeStyle;rounded=0;orthogonalLoop=1;jettySize=auto;html=1;fontFamily=Tahoma;" parent="1" source="5ch3BuvXPacQ8BSMFHwB-73" target="5ch3BuvXPacQ8BSMFHwB-75" edge="1">
          <mxGeometry relative="1" as="geometry" />
        </mxCell>
        <mxCell id="5ch3BuvXPacQ8BSMFHwB-73" value="USER REQUEST THEIR DATA" style="ellipse;whiteSpace=wrap;html=1;fontFamily=Tahoma;" parent="1" vertex="1">
          <mxGeometry x="670" y="120" width="120" height="80" as="geometry" />
        </mxCell>
        <mxCell id="5ch3BuvXPacQ8BSMFHwB-79" value="" style="edgeStyle=orthogonalEdgeStyle;rounded=0;orthogonalLoop=1;jettySize=auto;html=1;fontFamily=Tahoma;" parent="1" source="5ch3BuvXPacQ8BSMFHwB-75" target="5ch3BuvXPacQ8BSMFHwB-78" edge="1">
          <mxGeometry relative="1" as="geometry" />
        </mxCell>
        <mxCell id="5ch3BuvXPacQ8BSMFHwB-75" value="API GET DATA FROM DB" style="shape=parallelogram;perimeter=parallelogramPerimeter;whiteSpace=wrap;html=1;fixedSize=1;fontFamily=Tahoma;" parent="1" vertex="1">
          <mxGeometry x="665" y="220" width="130" height="70" as="geometry" />
        </mxCell>
        <mxCell id="5ch3BuvXPacQ8BSMFHwB-81" value="" style="edgeStyle=orthogonalEdgeStyle;rounded=0;orthogonalLoop=1;jettySize=auto;html=1;fontFamily=Tahoma;" parent="1" source="5ch3BuvXPacQ8BSMFHwB-78" target="5ch3BuvXPacQ8BSMFHwB-80" edge="1">
          <mxGeometry relative="1" as="geometry" />
        </mxCell>
        <mxCell id="5ch3BuvXPacQ8BSMFHwB-78" value="API GET DATA TO&lt;br&gt;FRONTEND" style="shape=parallelogram;perimeter=parallelogramPerimeter;whiteSpace=wrap;html=1;fixedSize=1;fontFamily=Tahoma;" parent="1" vertex="1">
          <mxGeometry x="673.75" y="320" width="112.5" height="70" as="geometry" />
        </mxCell>
        <mxCell id="5ch3BuvXPacQ8BSMFHwB-84" value="" style="edgeStyle=orthogonalEdgeStyle;rounded=0;orthogonalLoop=1;jettySize=auto;html=1;fontFamily=Tahoma;" parent="1" source="5ch3BuvXPacQ8BSMFHwB-80" target="5ch3BuvXPacQ8BSMFHwB-83" edge="1">
          <mxGeometry relative="1" as="geometry" />
        </mxCell>
        <mxCell id="5ch3BuvXPacQ8BSMFHwB-80" value="USER DELETE DATA" style="ellipse;whiteSpace=wrap;html=1;fontFamily=Tahoma;" parent="1" vertex="1">
          <mxGeometry x="670" y="420" width="120" height="80" as="geometry" />
        </mxCell>
        <mxCell id="5ch3BuvXPacQ8BSMFHwB-86" value="" style="edgeStyle=orthogonalEdgeStyle;rounded=0;orthogonalLoop=1;jettySize=auto;html=1;fontFamily=Tahoma;" parent="1" source="5ch3BuvXPacQ8BSMFHwB-83" target="5ch3BuvXPacQ8BSMFHwB-85" edge="1">
          <mxGeometry relative="1" as="geometry" />
        </mxCell>
        <mxCell id="5ch3BuvXPacQ8BSMFHwB-83" value="API GET DATA TO &lt;br&gt;DB" style="shape=parallelogram;perimeter=parallelogramPerimeter;whiteSpace=wrap;html=1;fixedSize=1;fontFamily=Tahoma;" parent="1" vertex="1">
          <mxGeometry x="665" y="530" width="130" height="70" as="geometry" />
        </mxCell>
        <mxCell id="4QbrbUjf_JDfH0iNYR-u-13" value="" style="edgeStyle=orthogonalEdgeStyle;rounded=0;orthogonalLoop=1;jettySize=auto;html=1;" edge="1" parent="1" source="5ch3BuvXPacQ8BSMFHwB-85" target="4QbrbUjf_JDfH0iNYR-u-12">
          <mxGeometry relative="1" as="geometry" />
        </mxCell>
        <mxCell id="5ch3BuvXPacQ8BSMFHwB-85" value="DB store data" style="rounded=1;whiteSpace=wrap;html=1;fontFamily=Tahoma;" parent="1" vertex="1">
          <mxGeometry x="670" y="630" width="120" height="60" as="geometry" />
        </mxCell>
        <mxCell id="5ch3BuvXPacQ8BSMFHwB-87" value="END" style="rounded=1;whiteSpace=wrap;html=1;fontFamily=Tahoma;" parent="1" vertex="1">
          <mxGeometry x="455" y="530" width="120" height="60" as="geometry" />
        </mxCell>
        <mxCell id="4QbrbUjf_JDfH0iNYR-u-1" value="END" style="rounded=1;whiteSpace=wrap;html=1;fontFamily=Tahoma;" vertex="1" parent="1">
          <mxGeometry x="80" y="450" width="120" height="60" as="geometry" />
        </mxCell>
        <mxCell id="4QbrbUjf_JDfH0iNYR-u-3" value="END" style="rounded=1;whiteSpace=wrap;html=1;fontFamily=Tahoma;" vertex="1" parent="1">
          <mxGeometry x="260" y="650" width="120" height="60" as="geometry" />
        </mxCell>
        <mxCell id="4QbrbUjf_JDfH0iNYR-u-7" value="" style="edgeStyle=orthogonalEdgeStyle;rounded=0;orthogonalLoop=1;jettySize=auto;html=1;" edge="1" parent="1" source="4QbrbUjf_JDfH0iNYR-u-5" target="5ch3BuvXPacQ8BSMFHwB-19">
          <mxGeometry relative="1" as="geometry" />
        </mxCell>
        <mxCell id="4QbrbUjf_JDfH0iNYR-u-5" value="USER REQUEST THEIR DATA" style="ellipse;whiteSpace=wrap;html=1;fontFamily=Tahoma;" vertex="1" parent="1">
          <mxGeometry x="265" y="150" width="115" height="80" as="geometry" />
        </mxCell>
        <mxCell id="4QbrbUjf_JDfH0iNYR-u-10" value="" style="edgeStyle=orthogonalEdgeStyle;rounded=0;orthogonalLoop=1;jettySize=auto;html=1;" edge="1" parent="1" source="4QbrbUjf_JDfH0iNYR-u-8" target="5ch3BuvXPacQ8BSMFHwB-87">
          <mxGeometry relative="1" as="geometry" />
        </mxCell>
        <mxCell id="4QbrbUjf_JDfH0iNYR-u-8" value="Frontend display data" style="rounded=1;whiteSpace=wrap;html=1;" vertex="1" parent="1">
          <mxGeometry x="455" y="435" width="120" height="60" as="geometry" />
        </mxCell>
        <mxCell id="4QbrbUjf_JDfH0iNYR-u-12" value="END" style="rounded=1;whiteSpace=wrap;html=1;fontFamily=Tahoma;" vertex="1" parent="1">
          <mxGeometry x="670" y="720" width="120" height="60" as="geometry" />
        </mxCell>
      </root>
    </mxGraphModel>
  </diagram>
</mxfile>
